<?xml version="1.0" encoding="utf-8"?>
<!-- Generator: Adobe Illustrator 27.0.0, SVG Export Plug-In . SVG Version: 6.00 Build 0)  -->
<svg version="1.1" id="Layer_1" xmlns="http://www.w3.org/2000/svg" xmlns:xlink="http://www.w3.org/1999/xlink" x="0px" y="0px"
	 viewBox="0 0 500 500" style="enable-background:new 0 0 500 500;" xml:space="preserve">
<style type="text/css">
	.st0{fill:#FFFFFF;}
</style>
<path class="st0" d="M0.19-0.08v500h117.67v-500H0.19z M87.84,466.67c0,3.68-2.98,6.67-6.67,6.67H36.88c-3.68,0-6.67-2.98-6.67-6.67
	v-32.04c0-3.68,2.98-6.67,6.67-6.67h44.29c3.68,0,6.67,2.98,6.67,6.67V466.67z M87.84,386.38c0,3.68-2.98,6.67-6.67,6.67H36.88
	c-3.68,0-6.67-2.98-6.67-6.67v-32.04c0-3.68,2.98-6.67,6.67-6.67h44.29c3.68,0,6.67,2.98,6.67,6.67V386.38z M87.84,306.08
	c0,3.68-2.98,6.67-6.67,6.67H36.88c-3.68,0-6.67-2.98-6.67-6.67v-32.04c0-3.68,2.98-6.67,6.67-6.67h44.29
	c3.68,0,6.67,2.98,6.67,6.67V306.08z M87.84,225.79c0,3.68-2.98,6.67-6.67,6.67H36.88c-3.68,0-6.67-2.98-6.67-6.67v-32.04
	c0-3.68,2.98-6.67,6.67-6.67h44.29c3.68,0,6.67,2.98,6.67,6.67V225.79z M87.84,145.5c0,3.68-2.98,6.67-6.67,6.67H36.88
	c-3.68,0-6.67-2.98-6.67-6.67v-32.04c0-3.68,2.98-6.67,6.67-6.67h44.29c3.68,0,6.67,2.98,6.67,6.67V145.5z M87.84,65.21
	c0,3.68-2.98,6.67-6.67,6.67H36.88c-3.68,0-6.67-2.98-6.67-6.67V33.17c0-3.68,2.98-6.67,6.67-6.67h44.29c3.68,0,6.67,2.98,6.67,6.67
	V65.21z"/>
<path class="st0" d="M382.53-0.08v500h117.67v-500H382.53z M470.17,466.67c0,3.68-2.98,6.67-6.67,6.67h-44.29
	c-3.68,0-6.67-2.98-6.67-6.67v-32.04c0-3.68,2.98-6.67,6.67-6.67h44.29c3.68,0,6.67,2.98,6.67,6.67V466.67z M470.17,386.38
	c0,3.68-2.98,6.67-6.67,6.67h-44.29c-3.68,0-6.67-2.98-6.67-6.67v-32.04c0-3.68,2.98-6.67,6.67-6.67h44.29
	c3.68,0,6.67,2.98,6.67,6.67V386.38z M470.17,306.08c0,3.68-2.98,6.67-6.67,6.67h-44.29c-3.68,0-6.67-2.98-6.67-6.67v-32.04
	c0-3.68,2.98-6.67,6.67-6.67h44.29c3.68,0,6.67,2.98,6.67,6.67V306.08z M470.17,225.79c0,3.68-2.98,6.67-6.67,6.67h-44.29
	c-3.68,0-6.67-2.98-6.67-6.67v-32.04c0-3.68,2.98-6.67,6.67-6.67h44.29c3.68,0,6.67,2.98,6.67,6.67V225.79z M470.17,145.5
	c0,3.68-2.98,6.67-6.67,6.67h-44.29c-3.68,0-6.67-2.98-6.67-6.67v-32.04c0-3.68,2.98-6.67,6.67-6.67h44.29
	c3.68,0,6.67,2.98,6.67,6.67V145.5z M470.17,65.21c0,3.68-2.98,6.67-6.67,6.67h-44.29c-3.68,0-6.67-2.98-6.67-6.67V33.17
	c0-3.68,2.98-6.67,6.67-6.67h44.29c3.68,0,6.67,2.98,6.67,6.67V65.21z"/>
<polygon class="st0" points="142.16,18.15 142.16,179.04 202.74,275.81 320.41,275.81 "/>
<g>
	<polygon class="st0" points="268.4,157.83 327.24,238.28 360.23,179.04 360.23,18.15 	"/>
</g>
</svg>
